<?xml version="1.0" standalone="no"?>
<!DOCTYPE svg PUBLIC "-//W3C//DTD SVG 20010904//EN"
 "http://www.w3.org/TR/2001/REC-SVG-20010904/DTD/svg10.dtd">
<svg version="1.0" xmlns="http://www.w3.org/2000/svg"
 width="248.000000pt" height="248.000000pt" viewBox="0 0 248.000000 248.000000"
 preserveAspectRatio="xMidYMid meet">

<g transform="translate(0.000000,248.000000) scale(0.100000,-0.100000)"
fill="#000000" stroke="none">
<path d="M695 2435 c-285 -129 -499 -339 -641 -630 l-54 -110 0 -126 0 -125
34 -1 c19 -1 39 -4 45 -8 12 -7 5 -52 -11 -72 -5 -7 -5 -14 1 -18 10 -6 10
-47 -4 -255 -3 -41 -5 -108 -6 -147 -2 -57 -5 -71 -14 -63 -7 6 -16 25 -19 43
-14 72 -16 80 -21 85 -3 3 -5 -39 -5 -93 0 -110 9 -143 73 -265 147 -280 383
-493 676 -610 l98 -40 139 1 c77 1 129 4 117 6 -13 2 -23 8 -23 12 0 4 27 41
61 80 33 40 58 75 55 78 -3 3 -22 -7 -41 -22 -41 -31 -54 -28 -31 8 21 31 168
77 244 77 51 0 55 -2 103 -53 27 -28 49 -55 49 -59 0 -5 5 -8 10 -8 17 0 11
21 -20 67 -16 24 -30 45 -30 46 0 1 42 2 93 2 80 0 98 4 143 27 52 28 113 87
137 135 17 33 37 121 37 163 0 25 7 32 47 50 25 11 68 34 95 50 58 36 69 37
88 9 8 -12 39 -52 68 -90 28 -37 52 -72 52 -77 0 -9 -97 -120 -145 -165 -172
-163 -464 -300 -694 -327 -55 -6 -42 -8 81 -9 161 -1 163 -1 316 70 141 66
248 142 367 263 123 124 185 211 259 366 l51 105 2 120 c2 110 1 116 -10 75
l-12 -45 -67 -3 c-38 -2 -68 -6 -68 -11 0 -4 25 -7 55 -6 30 1 59 -1 63 -4 5
-3 5 -21 0 -38 -10 -39 -53 -57 -73 -29 -7 9 -25 16 -41 16 -23 0 -30 -5 -30
-20 0 -18 7 -20 58 -20 32 0 58 -4 58 -10 0 -11 5 -11 -112 -16 -52 -3 -89 0
-93 6 -3 5 3 10 14 10 28 0 37 20 9 21 -17 1 -18 3 -5 6 26 7 21 23 -8 23 -14
0 -25 5 -25 10 0 6 22 10 49 10 85 0 93 15 11 20 -68 5 -75 7 -78 28 -4 24 2
25 69 22 25 -1 38 4 42 14 4 9 18 16 31 16 18 0 24 -4 20 -15 -4 -10 0 -15 15
-15 15 0 21 6 21 21 0 20 -4 21 -107 19 -135 -3 -133 -3 -133 15 0 12 14 15
65 15 42 0 65 4 65 11 0 8 -20 10 -67 6 -100 -8 -163 1 -163 24 0 16 10 19 83
22 l82 3 -87 2 c-81 2 -88 4 -88 22 0 11 1 20 3 20 1 1 93 5 205 10 111 5 207
12 212 15 6 4 10 75 10 171 0 95 4 164 9 164 6 0 12 -15 14 -32 3 -18 4 23 3
92 l-1 126 -59 119 c-136 273 -333 470 -605 604 l-115 56 -125 2 -126 2 90
-24 c153 -40 279 -97 418 -189 59 -39 217 -183 217 -197 0 -5 -47 -9 -104 -9
-93 0 -105 2 -110 18 -15 47 -131 124 -248 165 -184 64 -447 91 -610 61 -93
-17 -212 -63 -281 -109 -67 -44 -72 -48 -139 -125 -44 -51 -63 -66 -85 -67
-15 0 -40 -1 -55 -2 l-27 -1 -2 -152 c-4 -369 -3 -436 8 -488 7 -32 17 -222
23 -450 6 -217 13 -417 16 -443 l6 -49 120 3 120 3 37 -35 c63 -60 80 -72 119
-78 l37 -6 3 -67 c3 -81 -7 -103 -50 -113 -59 -12 -237 -4 -279 13 -115 46
-330 225 -426 355 -27 36 -28 35 52 39 50 3 61 6 71 26 7 14 13 139 18 345 4
177 11 417 16 532 5 116 11 300 12 410 l3 200 -65 5 -64 5 67 67 c84 84 160
143 262 201 88 51 255 116 355 140 l65 15 -120 1 -120 1 -100 -45z m781 -180
c178 -30 379 -113 427 -177 17 -22 17 -26 1 -68 -28 -75 -26 -220 7 -436 16
-104 36 -234 44 -289 52 -340 52 -332 -7 -377 -41 -32 -172 -98 -193 -98 -18
0 -115 47 -115 56 0 4 21 40 46 80 48 76 84 174 84 225 0 45 -14 34 -27 -22
-11 -47 -87 -219 -117 -264 -11 -17 -22 -19 -65 -17 -36 3 -51 8 -51 19 0 8
16 61 35 117 122 367 94 660 -87 901 -115 154 -188 209 -320 241 -61 15 -72
15 -141 0 -71 -16 -182 -74 -201 -105 -10 -16 7 -14 30 4 40 30 43 13 5 -35
-49 -62 -95 -156 -116 -235 -31 -116 -11 -356 41 -496 11 -29 17 -80 18 -154
2 -98 5 -116 29 -162 21 -41 34 -54 64 -63 43 -14 91 -61 99 -99 11 -52 28
-97 62 -176 32 -73 55 -159 68 -256 5 -37 -26 -109 -47 -109 -5 0 -9 26 -9 58
0 73 -23 169 -55 232 -14 28 -83 144 -154 258 -145 235 -169 279 -218 406 -90
234 -96 437 -16 631 93 226 249 359 479 408 91 20 289 21 400 2z m838 -367 c9
-12 16 -27 16 -34 0 -12 -367 -29 -395 -18 -8 4 -15 18 -15 35 l0 28 108 4
c287 8 269 9 286 -15z m-2080 -184 c-3 -355 -20 -980 -28 -992 -4 -7 -27 -12
-52 -12 -42 0 -46 2 -61 38 -15 34 -15 65 0 376 9 186 14 342 11 347 -3 5 -26
9 -51 9 l-45 0 7 47 c15 102 92 302 117 304 7 1 22 2 33 2 24 2 32 22 8 22
-23 0 -28 24 -6 31 10 3 25 9 33 14 32 19 35 4 34 -186z m2111 57 c-16 -4
-118 -7 -225 -8 -107 0 -170 2 -140 6 78 9 401 11 365 2z m-2088 -103 c-3 -8
-6 -5 -6 6 -1 11 2 17 5 13 3 -3 4 -12 1 -19z m1033 17 c0 -2 -24 -20 -52 -38
-29 -19 -64 -46 -77 -61 -28 -30 -46 -35 -32 -8 17 32 65 75 106 93 41 19 55
23 55 14z m925 -5 c3 -5 2 -10 -4 -10 -6 0 -8 -7 -5 -15 5 -11 -1 -15 -22 -16
-16 0 -75 -2 -131 -5 -65 -4 -103 -2 -103 4 0 6 -3 17 -6 26 -4 12 0 16 16 16
15 0 20 -5 17 -14 -8 -20 17 -27 40 -11 26 18 123 30 123 15 0 -5 11 -10 25
-10 16 0 25 6 25 15 0 17 16 20 25 5z m-225 -80 c0 -11 5 -20 10 -20 6 0 10
-4 10 -10 0 -5 -11 -10 -24 -10 -23 0 -42 32 -30 52 10 16 34 8 34 -12z m175
10 c-3 -5 -33 -10 -66 -10 -33 0 -59 4 -59 10 0 6 29 10 66 10 41 0 63 -4 59
-10z m121 -5 c-4 -10 1 -15 15 -15 11 0 17 -4 14 -10 -7 -11 -155 -9 -155 2 0
4 24 9 53 9 28 1 42 4 30 6 -36 7 -27 23 13 23 28 0 35 -3 30 -15z m-782 -95
c42 -118 -18 -245 -122 -256 -28 -3 -55 5 -112 33 -68 35 -76 42 -91 83 -36
100 -36 104 21 140 28 18 52 31 53 29 2 -2 8 -26 15 -54 13 -54 49 -95 83 -95
58 0 106 83 96 166 l-5 45 22 -20 c12 -11 30 -44 40 -71z m-547 58 c39 -11 58
-34 22 -25 -13 3 -50 11 -81 17 -32 6 -58 15 -58 20 0 9 70 3 117 -12z m1143
12 c0 -5 -7 -10 -15 -10 -8 0 -15 5 -15 10 0 6 7 10 15 10 8 0 15 -4 15 -10z
m-1242 -76 c7 -2 12 -20 12 -43 0 -55 16 -86 56 -107 19 -10 34 -21 34 -24 0
-9 -68 -60 -92 -68 -13 -5 -30 -7 -40 -5 -29 7 -77 145 -78 225 l0 38 48 -6
c26 -3 53 -7 60 -10z m172 -134 c-6 -11 -17 -20 -24 -20 -9 0 -7 12 8 45 19
40 21 43 24 21 2 -14 -2 -34 -8 -46z m135 -86 c38 -15 74 -31 80 -35 5 -5 15
-9 23 -9 8 0 52 -12 99 -27 71 -21 88 -31 104 -57 31 -51 25 -93 -19 -135 -21
-20 -51 -43 -68 -51 -16 -8 -34 -20 -41 -26 -7 -7 -65 -29 -129 -50 -129 -41
-198 -47 -241 -19 -30 20 -22 28 37 40 19 4 96 33 170 65 74 32 160 66 190 77
42 14 56 24 58 41 5 33 -40 29 -108 -9 -30 -17 -73 -37 -95 -44 -22 -8 -92
-32 -155 -54 -152 -54 -226 -55 -250 -3 -14 33 -25 151 -16 186 3 14 12 26 19
26 6 0 41 19 76 43 36 23 74 48 85 54 34 20 106 15 181 -13z m864 -377 c-50
-45 -139 -101 -179 -112 l-25 -7 22 21 c12 11 25 21 28 21 8 0 123 77 159 107
48 40 44 14 -5 -30z m-1285 -19 c20 -35 51 -85 67 -112 l30 -50 -24 -50 c-14
-28 -28 -61 -32 -73 -5 -19 -13 -23 -46 -23 -37 0 -39 2 -40 33 -7 256 -8 337
-1 337 4 0 25 -28 46 -62z m946 -86 c44 -18 104 -78 130 -128 33 -66 34 -171
3 -229 -75 -140 -247 -177 -362 -78 -23 19 -41 38 -41 42 0 5 17 11 37 14 26
5 45 1 67 -12 99 -59 228 -16 271 92 13 32 15 57 10 104 -20 186 -234 247
-334 96 -31 -48 -17 -55 20 -9 35 41 45 42 30 3 l-10 -26 45 32 c75 53 163 39
211 -32 47 -70 21 -156 -60 -197 -85 -44 -195 35 -197 140 0 29 -3 37 -11 29
-6 -6 -9 -35 -7 -67 5 -90 -29 -64 -45 34 -2 14 -5 -7 -6 -45 -1 -68 -18 -115
-41 -115 -20 0 -42 64 -42 124 0 72 20 128 65 174 70 74 171 94 267 54z m-477
-22 c42 -7 77 -16 77 -21 0 -5 -10 -28 -22 -51 -18 -33 -23 -63 -25 -127 l-2
-85 -48 -48 -48 -49 -7 28 c-5 16 -22 91 -39 168 -16 77 -34 157 -38 177 -5
20 -7 39 -4 41 2 3 20 -1 41 -8 20 -7 72 -19 115 -25z m1187 16 c0 -14 -63
-142 -73 -148 -7 -4 -39 -8 -72 -8 -57 0 -61 2 -97 41 -21 23 -38 44 -38 48 0
8 56 58 73 64 14 6 207 9 207 3z m-2245 -106 c3 -5 1 -10 -4 -10 -6 0 -11 5
-11 10 0 6 2 10 4 10 3 0 8 -4 11 -10z m768 -207 c20 -37 21 -47 6 -37 -24 14
-50 96 -42 133 l7 36 6 -50 c3 -27 14 -64 23 -82z m347 -52 l20 -40 -34 -21
c-84 -51 -195 -205 -214 -296 -8 -40 -32 -54 -60 -35 -25 16 64 174 200 354
32 42 61 77 63 77 3 0 14 -18 25 -39z m81 -103 c21 -17 39 -35 39 -40 0 -4
-20 -8 -45 -8 -25 0 -71 -9 -102 -20 -31 -11 -59 -18 -61 -15 -3 3 -3 6 -1 8
2 1 30 26 62 55 32 29 61 52 63 52 3 0 23 -14 45 -32z m-406 -228 c11 -17 -5
-50 -25 -50 -25 0 -31 21 -12 43 17 19 28 22 37 7z"/>
<path d="M1660 1855 c32 -94 56 -213 66 -322 4 -40 11 -73 15 -73 14 0 10 138
-7 234 -14 84 -77 246 -94 246 -4 0 5 -38 20 -85z"/>
<path d="M120 1754 c0 -8 5 -12 10 -9 6 3 10 10 10 16 0 5 -4 9 -10 9 -5 0
-10 -7 -10 -16z"/>
<path d="M1093 1263 c-21 -8 -14 -29 13 -42 25 -11 44 -8 44 8 0 13 -44 38
-57 34z"/>
<path d="M962 1244 c-27 -18 -29 -34 -4 -34 23 0 64 29 57 41 -9 13 -28 11
-53 -7z"/>
</g>
</svg>
